# xmcd
#
# Track frame offsets:
#	150
#	19655
#	36840
#	58292
#	75322
#	95185
#	111735
#	129802
#	147567
#	166447
#	181387
#	219857
#
# Disc length: 3228 seconds
#
# Revision: 3
# Processed by: cddbd v1.5.1PL0 Copyright (c) Steve Scherf et al.
# Submitted via: audiograbber 1.82.02
#
DISCID=aa0c9a0c
DTITLE=Dave Graney and the Coral Snakes - Night of the Wolverine
DYEAR=1993
DGENRE=Alternative Rock
TTITLE0=You're Just Too Hip Baby
TTITLE1=Mogambo
TTITLE2=Night of the Wolverine I
TTITLE3=I'm Just Havin' One o' Those Lives
TTITLE4=I Held the Cool Breeze
TTITLE5=I Remember You (You're the Girl I Love)
TTITLE6=Three Dead Passengers in a Stolen Second Hand Ford
TTITLE7=That's the Way It's Gonna Be
TTITLE8=Maggie Cassidy
TTITLE9=You Need to Suffer
TTITLE10=Night of The Wolverine II - I. If I Could Have Stayed Home, II. The Ki
TTITLE10=ng of Adelaide, III. You Coul
TTITLE11=Out There (in the Night of Time)
EXTD=
EXTT0=
EXTT1=
EXTT2=
EXTT3=
EXTT4=
EXTT5=
EXTT6=
EXTT7=
EXTT8=
EXTT9=
EXTT10=
EXTT11=
PLAYORDER=
